{
    "asset" : {
        "generator" : "Khronos glTF Blender I/O v3.4.50",
        "version" : "2.0"
    },
    "extensionsUsed" : [
        "KHR_materials_specular",
        "KHR_materials_ior"
    ],
    "scene" : 0,
    "scenes" : [
        {
            "name" : "Scene",
            "nodes" : [
                0
            ]
        }
    ],
    "nodes" : [
        {
            "mesh" : 0,
            "name" : "texturedMesh.001",
            "rotation" : [
                -0.02029920555651188,
                -0.5891059041023254,
                -0.8062646985054016,
                0.04979395493865013
            ],
            "translation" : [
                -0.009464774280786514,
                0.10889074206352234,
                -0.4517170190811157
            ]
        }
    ],
    "materials" : [
        {
            "doubleSided" : true,
            "extensions" : {
                "KHR_materials_specular" : {
                    "specularColorFactor" : [
                        0,
                        0,
                        0
                    ]
                },
                "KHR_materials_ior" : {
                    "ior" : 1.4500000476837158
                }
            },
            "name" : "TextureAtlas_1001.001",
            "pbrMetallicRoughness" : {
                "baseColorTexture" : {
                    "index" : 0
                },
                "metallicFactor" : 0
            }
        },
        {
            "doubleSided" : true,
            "extensions" : {
                "KHR_materials_specular" : {
                    "specularColorFactor" : [
                        0,
                        0,
                        0
                    ]
                },
                "KHR_materials_ior" : {
                    "ior" : 1.4500000476837158
                }
            },
            "name" : "TextureAtlas_1002.001",
            "pbrMetallicRoughness" : {
                "baseColorTexture" : {
                    "index" : 1
                },
                "metallicFactor" : 0
            }
        }
    ],
    "meshes" : [
        {
            "name" : "texturedMesh.001",
            "primitives" : [
                {
                    "attributes" : {
                        "POSITION" : 0,
                        "TEXCOORD_0" : 1,
                        "NORMAL" : 2
                    },
                    "indices" : 3,
                    "material" : 0
                },
                {
                    "attributes" : {
                        "POSITION" : 4,
                        "TEXCOORD_0" : 5,
                        "NORMAL" : 6
                    },
                    "indices" : 7,
                    "material" : 1
                }
            ]
        }
    ],
    "textures" : [
        {
            "sampler" : 0,
            "source" : 0
        },
        {
            "sampler" : 0,
            "source" : 1
        }
    ],
    "images" : [
        {
            "mimeType" : "image/png",
            "name" : "texture_1001",
            "uri" : "texture_1001.png"
        },
        {
            "mimeType" : "image/png",
            "name" : "texture_1002",
            "uri" : "texture_1002.png"
        }
    ],
    "accessors" : [
        {
            "bufferView" : 0,
            "componentType" : 5126,
            "count" : 51366,
            "max" : [
                0.8450385928153992,
                1.813866138458252,
                0.7802007794380188
            ],
            "min" : [
                -0.7772988677024841,
                -0.29652097821235657,
                -0.8188180327415466
            ],
            "type" : "VEC3"
        },
        {
            "bufferView" : 1,
            "componentType" : 5126,
            "count" : 51366,
            "type" : "VEC2"
        },
        {
            "bufferView" : 2,
            "componentType" : 5126,
            "count" : 51366,
            "type" : "VEC3"
        },
        {
            "bufferView" : 3,
            "componentType" : 5123,
            "count" : 51960,
            "type" : "SCALAR"
        },
        {
            "bufferView" : 4,
            "componentType" : 5126,
            "count" : 7027,
            "max" : [
                0.8251380920410156,
                1.5704121589660645,
                0.7621937990188599
            ],
            "min" : [
                -0.7650867104530334,
                -0.2960568070411682,
                -0.8119392395019531
            ],
            "type" : "VEC3"
        },
        {
            "bufferView" : 5,
            "componentType" : 5126,
            "count" : 7027,
            "type" : "VEC2"
        },
        {
            "bufferView" : 6,
            "componentType" : 5126,
            "count" : 7027,
            "type" : "VEC3"
        },
        {
            "bufferView" : 7,
            "componentType" : 5123,
            "count" : 7125,
            "type" : "SCALAR"
        }
    ],
    "bufferViews" : [
        {
            "buffer" : 0,
            "byteLength" : 616392,
            "byteOffset" : 0,
            "target" : 34962
        },
        {
            "buffer" : 0,
            "byteLength" : 410928,
            "byteOffset" : 616392,
            "target" : 34962
        },
        {
            "buffer" : 0,
            "byteLength" : 616392,
            "byteOffset" : 1027320,
            "target" : 34962
        },
        {
            "buffer" : 0,
            "byteLength" : 103920,
            "byteOffset" : 1643712,
            "target" : 34963
        },
        {
            "buffer" : 0,
            "byteLength" : 84324,
            "byteOffset" : 1747632,
            "target" : 34962
        },
        {
            "buffer" : 0,
            "byteLength" : 56216,
            "byteOffset" : 1831956,
            "target" : 34962
        },
        {
            "buffer" : 0,
            "byteLength" : 84324,
            "byteOffset" : 1888172,
            "target" : 34962
        },
        {
            "buffer" : 0,
            "byteLength" : 14250,
            "byteOffset" : 1972496,
            "target" : 34963
        }
    ],
    "samplers" : [
        {
            "magFilter" : 9729,
            "minFilter" : 9987
        }
    ],
    "buffers" : [
        {
            "byteLength" : 1986748,
            "uri" : "crtbody.bin"
        }
    ]
}
