{
    "asset" : {
        "generator" : "Khronos glTF Blender I/O v3.4.50",
        "version" : "2.0"
    },
    "scene" : 0,
    "scenes" : [
        {
            "name" : "Scene",
            "nodes" : [
                0
            ]
        }
    ],
    "nodes" : [
        {
            "mesh" : 0,
            "name" : "fish",
            "scale" : [
                0.05222289636731148,
                0.15533556044101715,
                0.15533556044101715
            ],
            "translation" : [
                -2.590012550354004,
                -0.10544982552528381,
                2.9494056701660156
            ]
        }
    ],
    "materials" : [
        {
            "doubleSided" : true,
            "name" : "Material",
            "pbrMetallicRoughness" : {
                "baseColorFactor" : [
                    0.800000011920929,
                    0.800000011920929,
                    0.800000011920929,
                    1
                ],
                "metallicFactor" : 0,
                "roughnessFactor" : 0.5
            }
        }
    ],
    "meshes" : [
        {
            "name" : "Cube",
            "primitives" : [
                {
                    "attributes" : {
                        "POSITION" : 0,
                        "TEXCOORD_0" : 1,
                        "NORMAL" : 2
                    },
                    "indices" : 3,
                    "material" : 0
                }
            ]
        }
    ],
    "accessors" : [
        {
            "bufferView" : 0,
            "componentType" : 5126,
            "count" : 100,
            "max" : [
                2.2874388694763184,
                8.482410430908203,
                1.5089789628982544
            ],
            "min" : [
                -2.26477313041687,
                -4.950687408447266,
                -31.034500122070312
            ],
            "type" : "VEC3"
        },
        {
            "bufferView" : 1,
            "componentType" : 5126,
            "count" : 100,
            "type" : "VEC2"
        },
        {
            "bufferView" : 2,
            "componentType" : 5126,
            "count" : 100,
            "type" : "VEC3"
        },
        {
            "bufferView" : 3,
            "componentType" : 5123,
            "count" : 399,
            "type" : "SCALAR"
        }
    ],
    "bufferViews" : [
        {
            "buffer" : 0,
            "byteLength" : 1200,
            "byteOffset" : 0,
            "target" : 34962
        },
        {
            "buffer" : 0,
            "byteLength" : 800,
            "byteOffset" : 1200,
            "target" : 34962
        },
        {
            "buffer" : 0,
            "byteLength" : 1200,
            "byteOffset" : 2000,
            "target" : 34962
        },
        {
            "buffer" : 0,
            "byteLength" : 798,
            "byteOffset" : 3200,
            "target" : 34963
        }
    ],
    "buffers" : [
        {
            "byteLength" : 4000,
            "uri" : "data:application/octet-stream;base64,"
        }
    ]
}
