{
    "asset" : {
        "generator" : "Khronos glTF Blender I/O v3.4.50",
        "version" : "2.0"
    },
    "extensionsUsed" : [
        "KHR_materials_specular",
        "KHR_materials_ior"
    ],
    "scene" : 0,
    "scenes" : [
        {
            "name" : "Scene",
            "nodes" : [
                0,
                1
            ]
        }
    ],
    "nodes" : [
        {
            "mesh" : 0,
            "name" : "texturedMesh",
            "rotation" : [
                0.5000000596046448,
                0.5,
                0.4999999403953552,
                0.5
            ]
        },
        {
            "mesh" : 1,
            "name" : "texturedMesh.001",
            "rotation" : [
                0.5000000596046448,
                0.5,
                0.4999999403953552,
                0.5
            ]
        }
    ],
    "materials" : [
        {
            "doubleSided" : true,
            "extensions" : {
                "KHR_materials_specular" : {
                    "specularColorFactor" : [
                        0,
                        0,
                        0
                    ]
                },
                "KHR_materials_ior" : {
                    "ior" : 1.4500000476837158
                }
            },
            "name" : "TextureAtlas_1001",
            "pbrMetallicRoughness" : {
                "baseColorTexture" : {
                    "index" : 0
                },
                "metallicFactor" : 0
            }
        },
        {
            "doubleSided" : true,
            "extensions" : {
                "KHR_materials_specular" : {
                    "specularColorFactor" : [
                        0,
                        0,
                        0
                    ]
                },
                "KHR_materials_ior" : {
                    "ior" : 1.4500000476837158
                }
            },
            "name" : "TextureAtlas_1002",
            "pbrMetallicRoughness" : {
                "baseColorTexture" : {
                    "index" : 1
                },
                "metallicFactor" : 0
            }
        },
        {
            "doubleSided" : true,
            "extensions" : {
                "KHR_materials_specular" : {
                    "specularColorFactor" : [
                        0,
                        0,
                        0
                    ]
                },
                "KHR_materials_ior" : {
                    "ior" : 1.4500000476837158
                }
            },
            "name" : "TextureAtlas_1003",
            "pbrMetallicRoughness" : {
                "baseColorTexture" : {
                    "index" : 2
                },
                "metallicFactor" : 0
            }
        }
    ],
    "meshes" : [
        {
            "name" : "texturedMesh",
            "primitives" : [
                {
                    "attributes" : {
                        "POSITION" : 0,
                        "TEXCOORD_0" : 1,
                        "NORMAL" : 2
                    },
                    "indices" : 3,
                    "material" : 0
                },
                {
                    "attributes" : {
                        "POSITION" : 4,
                        "TEXCOORD_0" : 5,
                        "NORMAL" : 6
                    },
                    "indices" : 7,
                    "material" : 1
                },
                {
                    "attributes" : {
                        "POSITION" : 8,
                        "TEXCOORD_0" : 9,
                        "NORMAL" : 10
                    },
                    "indices" : 11,
                    "material" : 2
                }
            ]
        },
        {
            "name" : "texturedMesh.001",
            "primitives" : [
                {
                    "attributes" : {
                        "POSITION" : 12,
                        "TEXCOORD_0" : 13,
                        "NORMAL" : 14
                    },
                    "indices" : 15,
                    "material" : 0
                },
                {
                    "attributes" : {
                        "POSITION" : 16,
                        "TEXCOORD_0" : 17,
                        "NORMAL" : 18
                    },
                    "indices" : 19,
                    "material" : 1
                },
                {
                    "attributes" : {
                        "POSITION" : 20,
                        "TEXCOORD_0" : 21,
                        "NORMAL" : 22
                    },
                    "indices" : 23,
                    "material" : 2
                }
            ]
        }
    ],
    "textures" : [
        {
            "sampler" : 0,
            "source" : 0
        },
        {
            "sampler" : 0,
            "source" : 1
        },
        {
            "sampler" : 0,
            "source" : 2
        }
    ],
    "images" : [
        {
            "mimeType" : "image/png",
            "name" : "texture_1001",
            "uri" : "texture_1001.png"
        },
        {
            "mimeType" : "image/png",
            "name" : "texture_1002",
            "uri" : "texture_1002.png"
        },
        {
            "mimeType" : "image/png",
            "name" : "texture_1003",
            "uri" : "texture_1003.png"
        }
    ],
    "accessors" : [
        {
            "bufferView" : 0,
            "componentType" : 5126,
            "count" : 2853,
            "max" : [
                1.1181292533874512,
                0.5577698349952698,
                0.6523465514183044
            ],
            "min" : [
                -0.0029244651086628437,
                -0.3752642273902893,
                -0.5408299565315247
            ],
            "type" : "VEC3"
        },
        {
            "bufferView" : 1,
            "componentType" : 5126,
            "count" : 2853,
            "type" : "VEC2"
        },
        {
            "bufferView" : 2,
            "componentType" : 5126,
            "count" : 2853,
            "type" : "VEC3"
        },
        {
            "bufferView" : 3,
            "componentType" : 5123,
            "count" : 2892,
            "type" : "SCALAR"
        },
        {
            "bufferView" : 4,
            "componentType" : 5126,
            "count" : 1722,
            "max" : [
                1.1395412683486938,
                0.5577698349952698,
                0.6546785235404968
            ],
            "min" : [
                -0.019846700131893158,
                -0.3408633768558502,
                -0.5408299565315247
            ],
            "type" : "VEC3"
        },
        {
            "bufferView" : 5,
            "componentType" : 5126,
            "count" : 1722,
            "type" : "VEC2"
        },
        {
            "bufferView" : 6,
            "componentType" : 5126,
            "count" : 1722,
            "type" : "VEC3"
        },
        {
            "bufferView" : 7,
            "componentType" : 5123,
            "count" : 1722,
            "type" : "SCALAR"
        },
        {
            "bufferView" : 8,
            "componentType" : 5126,
            "count" : 984,
            "max" : [
                1.1338632106781006,
                0.4520016014575958,
                0.6546785235404968
            ],
            "min" : [
                0.00032023905077949166,
                -0.3752642273902893,
                -0.5264704823493958
            ],
            "type" : "VEC3"
        },
        {
            "bufferView" : 9,
            "componentType" : 5126,
            "count" : 984,
            "type" : "VEC2"
        },
        {
            "bufferView" : 10,
            "componentType" : 5126,
            "count" : 984,
            "type" : "VEC3"
        },
        {
            "bufferView" : 11,
            "componentType" : 5123,
            "count" : 984,
            "type" : "SCALAR"
        },
        {
            "bufferView" : 12,
            "componentType" : 5126,
            "count" : 4413,
            "max" : [
                0.07460630685091019,
                0.7823636531829834,
                0.5789809226989746
            ],
            "min" : [
                -0.8452593088150024,
                -0.45524314045906067,
                -0.5761755704879761
            ],
            "type" : "VEC3"
        },
        {
            "bufferView" : 13,
            "componentType" : 5126,
            "count" : 4413,
            "type" : "VEC2"
        },
        {
            "bufferView" : 14,
            "componentType" : 5126,
            "count" : 4413,
            "type" : "VEC3"
        },
        {
            "bufferView" : 15,
            "componentType" : 5123,
            "count" : 4479,
            "type" : "SCALAR"
        },
        {
            "bufferView" : 16,
            "componentType" : 5126,
            "count" : 2397,
            "max" : [
                0.0634152963757515,
                0.7595288753509521,
                0.5789809226989746
            ],
            "min" : [
                -0.8360832929611206,
                -0.4596235454082489,
                -0.5713292956352234
            ],
            "type" : "VEC3"
        },
        {
            "bufferView" : 17,
            "componentType" : 5126,
            "count" : 2397,
            "type" : "VEC2"
        },
        {
            "bufferView" : 18,
            "componentType" : 5126,
            "count" : 2397,
            "type" : "VEC3"
        },
        {
            "bufferView" : 19,
            "componentType" : 5123,
            "count" : 2397,
            "type" : "SCALAR"
        },
        {
            "bufferView" : 20,
            "componentType" : 5126,
            "count" : 1722,
            "max" : [
                0.04193530231714249,
                0.7490198612213135,
                0.568466067314148
            ],
            "min" : [
                -0.8452593088150024,
                -0.4596235454082489,
                -0.5761755704879761
            ],
            "type" : "VEC3"
        },
        {
            "bufferView" : 21,
            "componentType" : 5126,
            "count" : 1722,
            "type" : "VEC2"
        },
        {
            "bufferView" : 22,
            "componentType" : 5126,
            "count" : 1722,
            "type" : "VEC3"
        },
        {
            "bufferView" : 23,
            "componentType" : 5123,
            "count" : 1722,
            "type" : "SCALAR"
        }
    ],
    "bufferViews" : [
        {
            "buffer" : 0,
            "byteLength" : 34236,
            "byteOffset" : 0,
            "target" : 34962
        },
        {
            "buffer" : 0,
            "byteLength" : 22824,
            "byteOffset" : 34236,
            "target" : 34962
        },
        {
            "buffer" : 0,
            "byteLength" : 34236,
            "byteOffset" : 57060,
            "target" : 34962
        },
        {
            "buffer" : 0,
            "byteLength" : 5784,
            "byteOffset" : 91296,
            "target" : 34963
        },
        {
            "buffer" : 0,
            "byteLength" : 20664,
            "byteOffset" : 97080,
            "target" : 34962
        },
        {
            "buffer" : 0,
            "byteLength" : 13776,
            "byteOffset" : 117744,
            "target" : 34962
        },
        {
            "buffer" : 0,
            "byteLength" : 20664,
            "byteOffset" : 131520,
            "target" : 34962
        },
        {
            "buffer" : 0,
            "byteLength" : 3444,
            "byteOffset" : 152184,
            "target" : 34963
        },
        {
            "buffer" : 0,
            "byteLength" : 11808,
            "byteOffset" : 155628,
            "target" : 34962
        },
        {
            "buffer" : 0,
            "byteLength" : 7872,
            "byteOffset" : 167436,
            "target" : 34962
        },
        {
            "buffer" : 0,
            "byteLength" : 11808,
            "byteOffset" : 175308,
            "target" : 34962
        },
        {
            "buffer" : 0,
            "byteLength" : 1968,
            "byteOffset" : 187116,
            "target" : 34963
        },
        {
            "buffer" : 0,
            "byteLength" : 52956,
            "byteOffset" : 189084,
            "target" : 34962
        },
        {
            "buffer" : 0,
            "byteLength" : 35304,
            "byteOffset" : 242040,
            "target" : 34962
        },
        {
            "buffer" : 0,
            "byteLength" : 52956,
            "byteOffset" : 277344,
            "target" : 34962
        },
        {
            "buffer" : 0,
            "byteLength" : 8958,
            "byteOffset" : 330300,
            "target" : 34963
        },
        {
            "buffer" : 0,
            "byteLength" : 28764,
            "byteOffset" : 339260,
            "target" : 34962
        },
        {
            "buffer" : 0,
            "byteLength" : 19176,
            "byteOffset" : 368024,
            "target" : 34962
        },
        {
            "buffer" : 0,
            "byteLength" : 28764,
            "byteOffset" : 387200,
            "target" : 34962
        },
        {
            "buffer" : 0,
            "byteLength" : 4794,
            "byteOffset" : 415964,
            "target" : 34963
        },
        {
            "buffer" : 0,
            "byteLength" : 20664,
            "byteOffset" : 420760,
            "target" : 34962
        },
        {
            "buffer" : 0,
            "byteLength" : 13776,
            "byteOffset" : 441424,
            "target" : 34962
        },
        {
            "buffer" : 0,
            "byteLength" : 20664,
            "byteOffset" : 455200,
            "target" : 34962
        },
        {
            "buffer" : 0,
            "byteLength" : 3444,
            "byteOffset" : 475864,
            "target" : 34963
        }
    ],
    "samplers" : [
        {
            "magFilter" : 9729,
            "minFilter" : 9987
        }
    ],
    "buffers" : [
        {
            "byteLength" : 479308,
            "uri" : "woman.bin"
        }
    ]
}
